<svg width="287.809" height="46.848" viewBox="0 0 287.809 46.848" xmlns="http://www.w3.org/2000/svg"><g id="svgGroup" stroke-linecap="round" fill-rule="evenodd" font-size="9pt" stroke="#000000" stroke-width="0" fill="#928374" style="stroke:#000000;stroke-width:0;fill:#928374"><path d="M 284.065 30.528 L 284.209 24.528 A 31.099 31.099 0 0 0 284.015 20.892 Q 283.167 13.728 278.593 13.728 A 3.927 3.927 0 0 0 277.643 13.835 A 2.365 2.365 0 0 0 276.097 14.976 Q 275.281 16.464 275.137 18.096 Q 274.945 20.976 274.945 23.328 L 274.945 30.288 A 1.408 1.408 0 0 1 274.521 31.296 A 2.25 2.25 0 0 1 274.177 31.584 A 3.152 3.152 0 0 1 273.446 31.963 A 2.535 2.535 0 0 1 272.593 32.112 Q 271.537 32.112 271.249 30.72 L 271.393 20.784 A 24.268 24.268 0 0 0 271.308 18.665 Q 271.004 15.221 269.617 14.208 A 2.779 2.779 0 0 0 268.848 13.829 Q 268.146 13.599 267.136 13.585 A 9.55 9.55 0 0 0 267.001 13.584 A 3.734 3.734 0 0 0 265.949 13.724 A 2.684 2.684 0 0 0 264.409 14.88 A 4.089 4.089 0 0 0 263.957 15.873 Q 263.639 16.877 263.581 18.373 A 17.82 17.82 0 0 0 263.569 19.056 L 263.857 27.984 A 11.281 11.281 0 0 1 263.777 29.387 Q 263.434 32.112 261.601 32.112 Q 260.362 32.112 260.116 30.741 A 3.218 3.218 0 0 1 260.113 30.72 Q 260.113 21.024 258.961 13.44 A 2.473 2.473 0 0 1 259.55 11.836 A 3.212 3.212 0 0 1 259.657 11.712 A 2.63 2.63 0 0 1 260.194 11.252 A 1.919 1.919 0 0 1 261.241 10.944 Q 262.121 10.944 262.553 11.935 A 2.908 2.908 0 0 1 262.561 11.952 A 5.88 5.88 0 0 1 264.558 10.228 Q 265.775 9.6 267.313 9.6 A 6.134 6.134 0 0 1 272.221 11.871 A 9.002 9.002 0 0 1 273.169 13.248 Q 275.569 9.792 279.529 9.792 A 7.794 7.794 0 0 1 282.092 10.192 Q 284.155 10.907 285.417 12.897 A 8.217 8.217 0 0 1 285.457 12.96 Q 286.525 14.582 287.071 17.052 A 20.225 20.225 0 0 1 287.281 18.144 Q 287.809 21.36 287.809 27.264 Q 287.809 29.428 287.385 30.682 A 4.794 4.794 0 0 1 287.329 30.84 Q 286.949 31.845 285.911 32.056 A 3.006 3.006 0 0 1 285.313 32.112 Q 284.197 32.112 284.079 30.846 A 3.425 3.425 0 0 1 284.065 30.528 Z M 21.217 1.92 A 33.134 33.134 0 0 0 20.729 1.768 Q 17.126 0.672 14.113 0.672 Q 8.305 0.672 4.153 4.584 A 11.504 11.504 0 0 0 1.746 7.857 Q 0.8 9.754 0.366 12.174 A 25.334 25.334 0 0 0 0.001 16.632 A 29.616 29.616 0 0 0 0.006 17.223 Q 0.063 20.059 0.667 22.465 A 15.719 15.719 0 0 0 4.369 29.472 A 9.862 9.862 0 0 0 4.523 29.629 A 7.869 7.869 0 0 0 10.273 32.016 A 8.766 8.766 0 0 0 11.178 31.967 Q 12.545 31.825 14.257 31.272 Q 16.561 30.528 20.689 28.368 A 3.681 3.681 0 0 0 21.066 28.058 A 2.459 2.459 0 0 0 21.889 26.208 Q 21.889 25.206 21.142 24.979 A 1.725 1.725 0 0 0 20.641 24.912 A 1.321 1.321 0 0 0 20.41 24.936 Q 19.914 25.025 18.944 25.451 A 24 24 0 0 0 18.337 25.728 Q 14.686 27.5 12.502 27.964 A 6.675 6.675 0 0 1 11.137 28.128 A 4.963 4.963 0 0 1 8.796 27.566 A 5.707 5.707 0 0 1 7.249 26.352 A 10.506 10.506 0 0 1 6.13 24.917 Q 4.951 23.102 4.451 20.722 A 18.585 18.585 0 0 1 4.081 16.896 A 23.033 23.033 0 0 1 4.217 14.321 Q 4.417 12.55 4.908 11.102 A 9.725 9.725 0 0 1 6.769 7.776 A 8.281 8.281 0 0 1 7.807 6.777 Q 10.382 4.704 14.641 4.704 Q 16.897 4.704 19.489 5.376 Q 20.497 5.376 21.289 4.776 A 3.098 3.098 0 0 0 21.296 4.77 Q 22.081 4.172 22.081 3.384 A 1.431 1.431 0 0 0 21.975 2.844 Q 21.866 2.574 21.644 2.319 A 3.02 3.02 0 0 0 21.217 1.92 Z M 98.652 10.083 A 1.903 1.903 0 0 0 97.825 9.888 A 6.378 6.378 0 0 0 97.577 9.893 Q 96.809 9.923 96.353 10.144 A 1.078 1.078 0 0 0 95.713 10.944 A 69.401 69.401 0 0 0 95.61 11.339 Q 95.314 12.497 94.404 16.118 A 6446.556 6446.556 0 0 0 93.841 18.36 Q 92.209 24.864 91.537 27.12 Q 90.769 25.056 89.929 23.136 A 29.762 29.762 0 0 1 89.865 22.989 Q 89.031 21.056 87.553 16.92 A 759.799 759.799 0 0 0 87.315 16.256 Q 85.963 12.487 85.345 10.896 A 2.786 2.786 0 0 0 85.075 10.528 A 1.744 1.744 0 0 0 83.713 9.888 A 2.767 2.767 0 0 0 83.208 9.932 A 1.895 1.895 0 0 0 82.129 10.512 A 4.45 4.45 0 0 0 81.911 10.765 Q 81.553 11.217 81.553 11.52 Q 81.553 11.904 81.649 12.144 Q 87.292 26.957 89.127 31.02 A 14.523 14.523 0 0 0 89.761 32.304 A 10.937 10.937 0 0 1 89.739 32.386 Q 89.446 33.481 88.375 36.676 A 405.646 405.646 0 0 1 87.817 38.328 A 98.375 98.375 0 0 0 87.253 40.033 Q 86.482 42.444 86.28 43.623 A 4.216 4.216 0 0 0 86.209 44.304 A 4.985 4.985 0 0 0 86.237 44.852 Q 86.278 45.222 86.378 45.525 A 2.092 2.092 0 0 0 86.737 46.2 A 1.683 1.683 0 0 0 87.523 46.749 A 2.064 2.064 0 0 0 88.177 46.848 A 1.105 1.105 0 0 0 88.975 46.518 Q 89.307 46.194 89.521 45.552 Q 91.489 40.032 95.569 26.352 A 1024.029 1024.029 0 0 0 95.592 26.274 Q 98.917 15.12 99.517 12.177 A 5.373 5.373 0 0 0 99.649 11.28 Q 99.649 10.901 99.339 10.571 A 1.999 1.999 0 0 0 99.049 10.32 A 2.589 2.589 0 0 0 98.652 10.083 Z M 46.077 13.633 A 6.412 6.412 0 0 0 45.745 15.744 Q 45.745 19.728 48.625 20.88 A 6.791 6.791 0 0 0 49.072 21.043 Q 50.111 21.385 51.937 21.696 Q 53.492 21.961 54.5 22.328 A 5.924 5.924 0 0 1 55.297 22.68 Q 56.038 23.083 56.282 23.822 A 2.553 2.553 0 0 1 56.401 24.624 Q 56.401 25.968 55.561 27 A 2.681 2.681 0 0 1 54.106 27.916 A 3.99 3.99 0 0 1 53.113 28.032 Q 51.505 28.032 49.873 27.36 Q 48.598 26.835 48.026 26.72 A 1.397 1.397 0 0 0 47.761 26.688 A 2.758 2.758 0 0 0 47.067 26.768 Q 46.219 26.989 45.981 27.819 A 2.695 2.695 0 0 0 45.889 28.56 Q 45.889 29.79 47.075 30.557 A 5.041 5.041 0 0 0 47.977 31.008 A 9.815 9.815 0 0 0 48.639 31.239 Q 49.622 31.545 50.779 31.691 A 18.107 18.107 0 0 0 53.041 31.824 A 9.903 9.903 0 0 0 54.081 31.771 A 7.619 7.619 0 0 0 58.105 30.168 A 4.805 4.805 0 0 0 59.457 28.437 Q 59.849 27.614 60.032 26.559 A 11.912 11.912 0 0 0 60.193 24.528 Q 60.193 23.181 59.826 22.253 A 3.055 3.055 0 0 0 58.681 20.784 Q 57.169 19.776 54.337 19.224 A 26.066 26.066 0 0 1 53.289 18.999 Q 51.985 18.688 51.146 18.319 A 4.824 4.824 0 0 1 50.377 17.904 Q 49.751 17.478 49.472 16.875 A 2.552 2.552 0 0 1 49.249 15.792 A 3.309 3.309 0 0 1 49.27 15.407 A 2.255 2.255 0 0 1 50.233 13.752 A 3.656 3.656 0 0 1 51.431 13.199 A 4.647 4.647 0 0 1 52.609 13.056 Q 54.001 13.056 55.657 13.92 Q 57.002 14.622 57.429 14.77 A 0.698 0.698 0 0 0 57.577 14.808 A 4.083 4.083 0 0 0 57.675 14.816 Q 57.921 14.832 58.297 14.832 A 0.916 0.916 0 0 0 58.383 14.828 Q 58.679 14.8 59.041 14.583 A 3.535 3.535 0 0 0 59.377 14.352 A 1.543 1.543 0 0 0 59.889 13.685 A 1.715 1.715 0 0 0 60.001 13.056 Q 60.001 11.831 58.536 10.979 A 7.152 7.152 0 0 0 57.553 10.512 Q 55.105 9.552 52.441 9.552 Q 49.777 9.552 47.761 11.232 A 5.376 5.376 0 0 0 46.077 13.633 Z M 193.293 13.633 A 6.412 6.412 0 0 0 192.961 15.744 Q 192.961 19.728 195.841 20.88 A 6.791 6.791 0 0 0 196.288 21.043 Q 197.327 21.385 199.153 21.696 Q 200.708 21.961 201.716 22.328 A 5.924 5.924 0 0 1 202.513 22.68 Q 203.254 23.083 203.498 23.822 A 2.553 2.553 0 0 1 203.617 24.624 Q 203.617 25.968 202.777 27 A 2.681 2.681 0 0 1 201.322 27.916 A 3.99 3.99 0 0 1 200.329 28.032 Q 198.721 28.032 197.089 27.36 Q 195.814 26.835 195.242 26.72 A 1.397 1.397 0 0 0 194.977 26.688 A 2.758 2.758 0 0 0 194.283 26.768 Q 193.435 26.989 193.197 27.819 A 2.695 2.695 0 0 0 193.105 28.56 Q 193.105 29.79 194.291 30.557 A 5.041 5.041 0 0 0 195.193 31.008 A 9.815 9.815 0 0 0 195.855 31.239 Q 196.838 31.545 197.995 31.691 A 18.107 18.107 0 0 0 200.257 31.824 A 9.903 9.903 0 0 0 201.297 31.771 A 7.619 7.619 0 0 0 205.321 30.168 A 4.805 4.805 0 0 0 206.673 28.437 Q 207.065 27.614 207.248 26.559 A 11.912 11.912 0 0 0 207.409 24.528 Q 207.409 23.181 207.042 22.253 A 3.055 3.055 0 0 0 205.897 20.784 Q 204.385 19.776 201.553 19.224 A 26.066 26.066 0 0 1 200.505 18.999 Q 199.201 18.688 198.362 18.319 A 4.824 4.824 0 0 1 197.593 17.904 Q 196.967 17.478 196.688 16.875 A 2.552 2.552 0 0 1 196.465 15.792 A 3.309 3.309 0 0 1 196.486 15.407 A 2.255 2.255 0 0 1 197.449 13.752 A 3.656 3.656 0 0 1 198.647 13.199 A 4.647 4.647 0 0 1 199.825 13.056 Q 201.217 13.056 202.873 13.92 Q 204.218 14.622 204.645 14.77 A 0.698 0.698 0 0 0 204.793 14.808 A 4.083 4.083 0 0 0 204.891 14.816 Q 205.137 14.832 205.513 14.832 A 0.916 0.916 0 0 0 205.599 14.828 Q 205.895 14.8 206.257 14.583 A 3.535 3.535 0 0 0 206.593 14.352 A 1.543 1.543 0 0 0 207.105 13.685 A 1.715 1.715 0 0 0 207.217 13.056 Q 207.217 11.831 205.752 10.979 A 7.152 7.152 0 0 0 204.769 10.512 Q 202.321 9.552 199.657 9.552 Q 196.993 9.552 194.977 11.232 A 5.376 5.376 0 0 0 193.293 13.633 Z M 112.577 1.171 A 0.779 0.779 0 0 0 112.465 1.56 A 2.604 2.604 0 0 0 112.469 1.683 Q 112.519 2.651 113.161 9.504 A 359.363 359.363 0 0 1 113.386 12.001 Q 113.718 15.84 113.816 18.12 A 38.896 38.896 0 0 1 113.857 19.752 A 49.757 49.757 0 0 1 113.842 20.963 Q 113.792 23.009 113.569 24.576 A 14.971 14.971 0 0 1 113.427 25.43 Q 113.349 25.827 113.255 26.165 A 6.237 6.237 0 0 1 113.041 26.808 Q 112.705 27.648 112.057 28.248 Q 111.409 28.848 110.497 28.848 A 3.41 3.41 0 0 1 107.388 27.021 Q 106.587 25.659 106.321 23.28 A 6.613 6.613 0 0 0 106.272 22.948 Q 105.987 21.312 105.025 21.312 A 2.367 2.367 0 0 0 104.159 21.474 A 2.802 2.802 0 0 0 103.417 21.912 Q 103.114 22.156 102.935 22.419 A 1.421 1.421 0 0 0 102.673 23.232 Q 102.673 25.288 103.162 26.892 A 7.52 7.52 0 0 0 104.881 29.928 A 7.187 7.187 0 0 0 107.867 31.842 A 8.603 8.603 0 0 0 110.593 32.256 A 7.782 7.782 0 0 0 111.937 32.145 A 5.187 5.187 0 0 0 115.681 29.568 A 6.048 6.048 0 0 0 116.079 28.809 Q 116.515 27.824 116.785 26.424 A 31.914 31.914 0 0 0 117.065 24.732 A 25.145 25.145 0 0 0 117.265 22.704 A 43.496 43.496 0 0 0 117.304 21.8 Q 117.361 20.172 117.361 17.544 A 30.154 30.154 0 0 0 117.356 17.064 Q 117.308 14.037 116.695 5.677 A 1023.09 1023.09 0 0 0 116.353 1.152 A 1.128 1.128 0 0 0 116.185 0.658 A 1.344 1.344 0 0 0 115.897 0.336 Q 115.621 0.109 115.192 0.035 A 2.649 2.649 0 0 0 114.745 0 Q 114.001 0 113.233 0.528 A 3.731 3.731 0 0 0 113.075 0.642 Q 112.727 0.91 112.577 1.171 Z M 122.209 33.408 L 121.585 30.528 Q 121.125 30.191 120.959 29.806 A 1.134 1.134 0 0 1 120.865 29.352 A 1.32 1.32 0 0 1 121.297 28.356 A 1.756 1.756 0 0 1 121.393 28.272 A 97.592 97.592 0 0 1 120.769 21.88 Q 120.553 18.612 120.499 14.986 A 164.781 164.781 0 0 1 120.481 12.528 A 105.116 105.116 0 0 1 120.492 11.109 Q 120.533 8.139 120.721 2.064 A 2.276 2.276 0 0 1 121.248 1.206 A 3.156 3.156 0 0 1 121.705 0.816 Q 122.449 0.288 123.121 0.288 A 14.934 14.934 0 0 1 123.354 0.29 Q 123.812 0.297 123.933 0.335 A 0.231 0.231 0 0 1 123.937 0.336 Q 130.801 2.256 135.889 7.752 Q 140.977 13.248 141.217 20.928 A 15.399 15.399 0 0 1 140.751 24.866 Q 139.52 29.517 135.036 31.25 A 12.559 12.559 0 0 1 134.209 31.536 A 14.244 14.244 0 0 1 130.1 32.159 A 15.9 15.9 0 0 1 129.961 32.16 A 25.131 25.131 0 0 1 128.113 32.096 Q 127.273 32.034 126.532 31.912 A 14.218 14.218 0 0 1 126.049 31.824 A 1.589 1.589 0 0 1 126.169 32.164 Q 126.241 32.461 126.241 32.856 A 1.161 1.161 0 0 1 126.061 33.463 Q 125.95 33.647 125.77 33.827 A 3.099 3.099 0 0 1 125.449 34.104 A 2.957 2.957 0 0 1 123.809 34.697 A 3.726 3.726 0 0 1 123.577 34.704 A 1.329 1.329 0 0 1 122.94 34.558 Q 122.4 34.269 122.209 33.408 Z M 220.225 20.832 Q 220.225 17.616 221.929 14.976 A 11.308 11.308 0 0 1 224.714 11.97 A 10.609 10.609 0 0 1 226.273 11.016 A 13.217 13.217 0 0 1 228.796 10.047 A 10.175 10.175 0 0 1 231.409 9.696 A 16.945 16.945 0 0 1 232.974 9.764 Q 233.733 9.834 234.37 9.979 A 7.056 7.056 0 0 1 235.417 10.296 Q 236.929 10.896 236.929 11.88 A 3.752 3.752 0 0 1 236.65 13.279 A 4.791 4.791 0 0 1 236.377 13.848 A 2.484 2.484 0 0 1 236.027 14.335 A 1.476 1.476 0 0 1 234.913 14.832 Q 234.581 14.832 233.104 14.295 A 44.082 44.082 0 0 1 233.065 14.28 A 28.089 28.089 0 0 0 232.536 14.092 Q 231.472 13.728 231.121 13.728 A 6.341 6.341 0 0 0 226.492 15.643 A 7.902 7.902 0 0 0 226.369 15.768 A 6.88 6.88 0 0 0 224.556 19.382 A 9.8 9.8 0 0 0 224.401 21.168 A 16.793 16.793 0 0 0 224.486 22.923 Q 224.681 24.769 225.319 25.916 A 4.483 4.483 0 0 0 225.481 26.184 Q 226.561 27.84 229.201 27.84 A 3.036 3.036 0 0 0 229.82 27.764 Q 230.792 27.557 232.46 26.787 A 33.105 33.105 0 0 0 232.825 26.616 Q 235.348 25.413 235.994 25.392 A 0.69 0.69 0 0 1 236.017 25.392 Q 236.641 25.392 237.025 25.776 A 1.295 1.295 0 0 1 237.408 26.699 A 1.701 1.701 0 0 1 237.409 26.736 A 2.141 2.141 0 0 1 237.169 27.687 Q 236.842 28.35 236.068 29.05 A 8.314 8.314 0 0 1 235.945 29.16 A 10.92 10.92 0 0 1 234.019 30.486 A 14.389 14.389 0 0 1 232.321 31.272 A 14.281 14.281 0 0 1 230.668 31.808 Q 229.472 32.112 228.433 32.112 A 7.811 7.811 0 0 1 225.586 31.613 Q 223.705 30.884 222.409 29.088 A 10.575 10.575 0 0 1 220.845 25.784 Q 220.428 24.331 220.291 22.595 A 22.442 22.442 0 0 1 220.225 20.832 Z M 74.734 11.062 A 8.676 8.676 0 0 0 70.321 9.84 A 9.639 9.639 0 0 0 68.772 9.959 A 6.117 6.117 0 0 0 64.417 12.72 A 11.167 11.167 0 0 0 62.954 16.098 A 14.202 14.202 0 0 0 62.545 19.584 A 23.751 23.751 0 0 0 62.643 21.772 A 19.519 19.519 0 0 0 63.793 26.88 A 15.207 15.207 0 0 0 64.139 27.745 Q 64.681 28.986 65.364 29.885 A 5.513 5.513 0 0 0 69.937 32.256 Q 71.569 32.256 73.465 31.512 A 13.884 13.884 0 0 0 74.862 30.876 A 10.867 10.867 0 0 0 76.705 29.664 A 25.63 25.63 0 0 0 77.399 29.105 Q 79.044 27.731 79.528 26.781 A 1.606 1.606 0 0 0 79.729 26.064 A 1.039 1.039 0 0 0 79.723 25.958 Q 79.681 25.547 79.314 25.096 A 3.824 3.824 0 0 0 78.961 24.72 A 7.795 7.795 0 0 0 78.853 24.621 Q 78.36 24.176 78.038 24.05 A 0.638 0.638 0 0 0 77.809 24 A 1.072 1.072 0 0 0 77.534 24.04 Q 76.862 24.219 75.7 25.204 A 20.236 20.236 0 0 0 74.929 25.896 A 6.777 6.777 0 0 1 72.555 27.361 A 7.701 7.701 0 0 1 69.937 27.792 A 2.246 2.246 0 0 1 69.631 27.772 A 1.584 1.584 0 0 1 68.641 27.264 A 3.542 3.542 0 0 1 68.014 26.56 Q 66.989 25.072 66.577 21.888 Q 68.509 21.888 69.746 21.789 A 14.157 14.157 0 0 0 70.609 21.696 A 10.169 10.169 0 0 0 71.914 21.43 A 7.635 7.635 0 0 0 75.601 19.224 Q 76.335 18.423 76.782 17.6 A 5.395 5.395 0 0 0 77.473 15 Q 77.473 12.816 75.169 11.328 A 10.576 10.576 0 0 0 74.734 11.062 Z M 179.041 10.848 L 178.993 11.328 Q 176.977 16.464 176.017 19.68 Q 175.393 21.936 175.081 23.04 A 68.168 68.168 0 0 0 174.9 23.694 Q 174.589 24.837 174.049 26.928 Q 173.46 29.202 173.193 30.163 A 27.345 27.345 0 0 1 173.089 30.528 A 3.067 3.067 0 0 1 172.587 31.369 Q 171.906 32.16 170.737 32.16 Q 169.921 32.16 169.585 31.104 A 62.89 62.89 0 0 0 167.982 26.707 Q 167.064 24.438 165.886 21.944 A 115.968 115.968 0 0 0 165.073 20.256 A 2717.008 2717.008 0 0 1 164.047 18.169 Q 162.391 14.797 161.867 13.698 A 30.997 30.997 0 0 1 161.689 13.32 Q 161.281 12.432 161.281 11.712 A 1.701 1.701 0 0 1 161.503 10.885 Q 161.66 10.598 161.929 10.32 A 2.407 2.407 0 0 1 162.46 9.898 A 1.842 1.842 0 0 1 163.393 9.648 A 1.455 1.455 0 0 1 164.391 10.047 Q 164.587 10.224 164.761 10.478 A 3.12 3.12 0 0 1 164.785 10.512 Q 165.313 11.568 167.785 16.416 Q 169.822 20.412 170.865 23.006 A 32.072 32.072 0 0 1 171.265 24.048 A 2.437 2.437 0 0 1 171.297 23.892 Q 171.357 23.638 171.503 23.161 A 36.598 36.598 0 0 1 171.601 22.848 Q 173.446 16.443 174.773 12.793 A 45.641 45.641 0 0 1 175.585 10.704 A 3.351 3.351 0 0 1 176.141 10.021 A 2.22 2.22 0 0 1 177.697 9.408 A 1.571 1.571 0 0 1 178.101 9.457 A 1.068 1.068 0 0 1 178.705 9.864 A 1.729 1.729 0 0 1 178.976 10.4 A 1.571 1.571 0 0 1 179.041 10.848 Z M 41.617 14.064 L 41.521 17.424 Q 41.473 19.008 41.473 20.544 L 42.193 31.392 A 0.949 0.949 0 0 1 41.618 32.273 Q 41.007 32.592 39.745 32.592 L 39.049 32.592 Q 38.497 32.592 38.281 32.16 Q 38.109 31.817 38.18 31.352 A 2.275 2.275 0 0 1 38.233 31.104 A 1.836 1.836 0 0 0 38.294 30.625 Q 38.294 30.388 38.238 30.133 A 3.083 3.083 0 0 0 38.113 29.712 Q 35.905 32.064 32.257 32.064 A 5.669 5.669 0 0 1 26.854 28.89 Q 25.599 26.509 25.497 22.344 A 30.637 30.637 0 0 1 25.489 21.6 Q 25.489 17.977 26.338 15.457 A 9.625 9.625 0 0 1 27.673 12.816 A 7.063 7.063 0 0 1 32.827 9.899 A 10.174 10.174 0 0 1 33.937 9.84 A 11.519 11.519 0 0 1 37.642 10.466 A 12.97 12.97 0 0 1 37.777 10.512 A 1.978 1.978 0 0 1 39.204 9.665 A 2.585 2.585 0 0 1 39.505 9.648 A 1.747 1.747 0 0 1 41.175 10.709 Q 41.617 11.603 41.617 13.248 L 41.617 14.064 Z M 158.881 14.064 L 158.785 17.424 Q 158.737 19.008 158.737 20.544 L 159.457 31.392 A 0.949 0.949 0 0 1 158.882 32.273 Q 158.271 32.592 157.009 32.592 L 156.313 32.592 Q 155.761 32.592 155.545 32.16 Q 155.373 31.817 155.444 31.352 A 2.275 2.275 0 0 1 155.497 31.104 A 1.836 1.836 0 0 0 155.558 30.625 Q 155.558 30.388 155.502 30.133 A 3.083 3.083 0 0 0 155.377 29.712 Q 153.169 32.064 149.521 32.064 A 5.669 5.669 0 0 1 144.118 28.89 Q 142.863 26.509 142.761 22.344 A 30.637 30.637 0 0 1 142.753 21.6 Q 142.753 17.977 143.602 15.457 A 9.625 9.625 0 0 1 144.937 12.816 A 7.063 7.063 0 0 1 150.091 9.899 A 10.174 10.174 0 0 1 151.201 9.84 A 11.519 11.519 0 0 1 154.906 10.466 A 12.97 12.97 0 0 1 155.041 10.512 A 1.978 1.978 0 0 1 156.468 9.665 A 2.585 2.585 0 0 1 156.769 9.648 A 1.747 1.747 0 0 1 158.439 10.709 Q 158.881 11.603 158.881 13.248 L 158.881 14.064 Z M 124.465 12.144 A 131.673 131.673 0 0 0 124.96 23.773 A 113.312 113.312 0 0 0 125.425 28.08 A 5.86 5.86 0 0 0 126.148 28.235 Q 126.924 28.357 128.086 28.397 A 35.835 35.835 0 0 0 129.313 28.416 Q 132.049 28.416 134.569 27.504 A 6.794 6.794 0 0 0 135.65 27.012 Q 137.123 26.162 137.233 24.816 Q 137.351 23.708 137.372 23.024 A 8.967 8.967 0 0 0 137.377 22.752 A 19.787 19.787 0 0 0 136.142 15.692 A 18.302 18.302 0 0 0 134.041 11.712 A 20.03 20.03 0 0 0 126.882 5.444 A 25.099 25.099 0 0 0 124.705 4.416 A 582.091 582.091 0 0 0 124.605 6.873 Q 124.498 9.699 124.472 11.287 A 54.667 54.667 0 0 0 124.465 12.144 Z M 252.825 11.882 A 6.289 6.289 0 0 0 248.017 9.696 A 10.515 10.515 0 0 0 246.657 9.781 A 7.279 7.279 0 0 0 241.345 13.008 Q 239.959 15.056 239.482 18.013 A 21.076 21.076 0 0 0 239.233 21.36 Q 239.233 25.44 241.537 28.776 A 9.535 9.535 0 0 0 242.292 29.737 A 6.86 6.86 0 0 0 247.609 32.112 A 6.895 6.895 0 0 0 251.693 30.869 A 8.158 8.158 0 0 0 253.657 28.848 A 12.196 12.196 0 0 0 255.47 24.861 A 15.674 15.674 0 0 0 255.937 20.952 A 17.099 17.099 0 0 0 255.75 18.384 A 12.966 12.966 0 0 0 253.705 13.008 A 9.672 9.672 0 0 0 252.825 11.882 Z M 186.577 16.128 L 186.577 26.88 L 186.625 30.24 A 1.866 1.866 0 0 1 186.033 31.637 A 2.382 2.382 0 0 1 185.905 31.752 A 2.773 2.773 0 0 1 185.268 32.157 A 2.171 2.171 0 0 1 184.369 32.352 Q 183.392 32.352 183.178 31.558 A 1.847 1.847 0 0 1 183.121 31.152 Q 182.497 15.84 182.497 14.208 Q 182.497 13.086 182.565 11.624 A 95.95 95.95 0 0 1 182.641 10.224 A 1.093 1.093 0 0 1 182.759 9.821 Q 182.997 9.381 183.679 9.361 A 2.249 2.249 0 0 1 183.745 9.36 A 4.673 4.673 0 0 1 184.784 9.466 Q 186.243 9.8 186.577 11.185 A 3.246 3.246 0 0 1 186.625 11.424 A 21.962 21.962 0 0 1 186.7 12.042 Q 186.761 12.608 186.768 13.011 A 5.825 5.825 0 0 1 186.769 13.104 L 186.577 16.128 Z M 34.513 14.016 A 7.489 7.489 0 0 0 32.938 14.171 Q 31.974 14.378 31.255 14.864 A 4.026 4.026 0 0 0 30.433 15.6 A 4.282 4.282 0 0 0 29.724 16.848 Q 29.24 18.11 29.125 20.096 A 22.696 22.696 0 0 0 29.089 21.408 A 19.64 19.64 0 0 0 29.223 23.817 Q 29.532 26.302 30.552 27.472 A 3.002 3.002 0 0 0 32.929 28.512 A 2.677 2.677 0 0 0 33.8 28.356 Q 34.443 28.134 35.161 27.6 A 6.096 6.096 0 0 0 36.075 26.772 A 4.401 4.401 0 0 0 36.865 25.536 A 16.203 16.203 0 0 0 37.712 21.47 A 19.487 19.487 0 0 0 37.777 19.872 A 20.246 20.246 0 0 0 37.724 18.359 Q 37.613 16.882 37.267 15.937 A 4.152 4.152 0 0 0 37.033 15.408 A 2.479 2.479 0 0 0 35.264 14.087 A 3.751 3.751 0 0 0 34.513 14.016 Z M 151.777 14.016 A 7.489 7.489 0 0 0 150.202 14.171 Q 149.238 14.378 148.519 14.864 A 4.026 4.026 0 0 0 147.697 15.6 A 4.282 4.282 0 0 0 146.988 16.848 Q 146.504 18.11 146.389 20.096 A 22.696 22.696 0 0 0 146.353 21.408 A 19.64 19.64 0 0 0 146.487 23.817 Q 146.796 26.302 147.816 27.472 A 3.002 3.002 0 0 0 150.193 28.512 A 2.677 2.677 0 0 0 151.064 28.356 Q 151.707 28.134 152.425 27.6 A 6.096 6.096 0 0 0 153.339 26.772 A 4.401 4.401 0 0 0 154.129 25.536 A 16.203 16.203 0 0 0 154.976 21.47 A 19.487 19.487 0 0 0 155.041 19.872 A 20.246 20.246 0 0 0 154.988 18.359 Q 154.877 16.882 154.531 15.937 A 4.152 4.152 0 0 0 154.297 15.408 A 2.479 2.479 0 0 0 152.528 14.087 A 3.751 3.751 0 0 0 151.777 14.016 Z M 247.441 13.632 A 3.451 3.451 0 0 0 244.868 14.771 A 5.726 5.726 0 0 0 244.129 15.744 Q 242.833 17.856 242.833 20.208 Q 242.833 22.575 243.439 24.215 A 6.123 6.123 0 0 0 244.273 25.776 Q 245.277 27.116 246.469 27.521 A 3.296 3.296 0 0 0 247.537 27.696 A 5.684 5.684 0 0 0 249.135 27.487 Q 251.048 26.927 251.713 24.864 A 8.844 8.844 0 0 0 251.954 23.712 Q 252.042 23.107 252.076 22.408 A 18.804 18.804 0 0 0 252.097 21.504 A 19.897 19.897 0 0 0 251.933 18.829 Q 251.224 13.632 247.441 13.632 Z M 70.561 13.152 Q 68.737 13.152 67.441 15.216 A 2.51 2.51 0 0 0 67.218 15.654 Q 66.859 16.532 66.529 18.48 A 20.47 20.47 0 0 0 68.77 18.368 Q 70.998 18.121 72.118 17.328 A 2.516 2.516 0 0 0 73.249 15.168 A 2.118 2.118 0 0 0 73.059 14.239 Q 72.535 13.152 70.561 13.152 Z M 215.736 27.048 A 2.459 2.459 0 0 0 213.961 26.304 A 1.711 1.711 0 0 0 213.277 26.444 Q 212.932 26.592 212.626 26.899 A 3.394 3.394 0 0 0 212.185 27.456 A 5.202 5.202 0 0 0 211.757 28.257 A 3.845 3.845 0 0 0 211.441 29.76 Q 211.441 30.912 212.257 31.464 Q 213.073 32.016 214.105 32.016 Q 215.137 32.016 215.905 31.128 A 3.711 3.711 0 0 0 216.127 30.845 A 2.819 2.819 0 0 0 216.673 29.184 Q 216.616 28.659 216.465 28.222 A 2.976 2.976 0 0 0 215.761 27.072 A 3.212 3.212 0 0 0 215.736 27.048 Z M 184.561 1.728 Q 185.425 1.728 186.193 2.544 A 3.331 3.331 0 0 1 186.638 3.127 Q 186.961 3.672 186.961 4.248 Q 186.961 4.994 186.368 5.757 A 4.563 4.563 0 0 1 186.121 6.048 Q 185.529 6.69 184.902 6.88 A 1.83 1.83 0 0 1 184.369 6.96 Q 183.457 6.96 182.713 6.192 A 2.61 2.61 0 0 1 181.991 4.624 A 3.541 3.541 0 0 1 181.969 4.224 A 3.074 3.074 0 0 1 182.123 3.208 Q 182.455 2.258 183.498 1.911 A 4.044 4.044 0 0 1 184.465 1.728 L 184.561 1.728 Z"/></g></svg>